<?xml version="1.0" encoding="iso-8859-1"?>
<!-- Generator: Adobe Illustrator 16.0.0, SVG Export Plug-In . SVG Version: 6.00 Build 0)  -->
<!DOCTYPE svg PUBLIC "-//W3C//DTD SVG 1.1//EN" "http://www.w3.org/Graphics/SVG/1.1/DTD/svg11.dtd">
<svg class="icon" version="1.1" id="Capa_1" xmlns="http://www.w3.org/2000/svg" xmlns:xlink="http://www.w3.org/1999/xlink" x="0px"
     y="0px"
     width="52.836px" height="52.836px" viewBox="0 0 52.836 52.836" style="enable-background:new 0 0 52.836 52.836;"
     xml:space="preserve">
		<path d="M47.447,11.05c-0.021-0.061-0.035-0.118-0.063-0.173s-0.063-0.103-0.104-0.153c-0.043-0.056-0.086-0.106-0.139-0.152
			c-0.02-0.017-0.029-0.04-0.051-0.055c-0.029-0.022-0.066-0.027-0.098-0.045c-0.062-0.035-0.119-0.064-0.188-0.086
			c-0.064-0.021-0.132-0.032-0.195-0.04c-0.037-0.004-0.07-0.021-0.109-0.021h-4c-0.551,0-1,0.447-1,1c0,0.553,0.449,1,1,1h2.033
			L32.32,29.073l-5.359-2.175c-0.045-0.018-0.092-0.015-0.139-0.025c-0.072-0.018-0.144-0.04-0.219-0.041
			c-0.066-0.001-0.127,0.016-0.191,0.027c-0.062,0.011-0.123,0.016-0.183,0.039c-0.069,0.026-0.129,0.07-0.192,0.112
			c-0.039,0.026-0.084,0.039-0.121,0.072l-7.186,6.476l-5.314-1.367c-0.041-0.01-0.08,0-0.12-0.006
			c-0.068-0.01-0.135-0.017-0.203-0.011c-0.064,0.007-0.122,0.021-0.184,0.036c-0.062,0.018-0.121,0.035-0.18,0.064
			c-0.063,0.031-0.114,0.067-0.168,0.109c-0.032,0.025-0.071,0.037-0.102,0.067l-6.333,6.333c-0.391,0.391-0.391,1.021,0,1.414
			c0.195,0.193,0.451,0.293,0.707,0.293c0.257,0,0.513-0.1,0.707-0.293l5.93-5.93l5.28,1.355c0.083,0.021,0.167,0.031,0.25,0.031
			c0.117,0,0.23-0.023,0.338-0.063c0.032-0.012,0.059-0.034,0.09-0.049c0.075-0.035,0.146-0.074,0.21-0.128
			c0.01-0.008,0.021-0.012,0.031-0.021l7.119-6.414l5.502,2.231c0.012,0.005,0.021,0.003,0.032,0.007
			c0.111,0.041,0.228,0.066,0.343,0.066l0,0l0,0c0.14,0,0.271-0.038,0.396-0.094c0.028-0.013,0.057-0.022,0.08-0.037
			c0.121-0.066,0.229-0.153,0.314-0.267c0.006-0.007,0.013-0.009,0.018-0.016l12.025-16.479v0.765c0,0.553,0.449,1,1,1
			c0.554,0,1-0.447,1-1v-3.833c0-0.026-0.012-0.048-0.014-0.074C47.48,11.182,47.466,11.117,47.447,11.05z"/>
    <path d="M45.938,23.834l-6.418,4.4c-0.023,0.017-0.037,0.043-0.061,0.062c-0.055,0.045-0.102,0.095-0.146,0.147
			c-0.039,0.05-0.071,0.099-0.104,0.154c-0.027,0.055-0.049,0.11-0.066,0.174c-0.021,0.063-0.035,0.129-0.041,0.196
			c-0.002,0.03-0.02,0.058-0.02,0.089v16.601H34.75V39.49c0-0.555-0.447-1-1-1s-1,0.445-1,1v6.167H29.5v-5.041c0-0.554-0.447-1-1-1
			s-1,0.446-1,1v5.042h-3.709v-5.042c0-0.554-0.446-1-1-1c-0.551,0-1,0.446-1,1v5.042H20v-5.042c0-0.554-0.447-1-1-1
			c-0.552,0-1,0.446-1,1v5.042h-3v-5.042c0-0.554-0.447-1-1-1c-0.552,0-1,0.446-1,1v5.042H2v-10h1.917c0.553,0,1-0.447,1-1
			c0-0.555-0.447-1-1-1H2v-3.186h4.833c0.553,0,1-0.447,1-1c0-0.556-0.447-1-1-1H2v-2.814h4.833c0.553,0,1-0.447,1-1
			c0-0.553-0.447-1-1-1H2v-4.5h29.5c0.553,0,1-0.447,1-1c0-0.553-0.447-1-1-1H1c-0.552,0-1,0.447-1,1v28.5c0,0.553,0.448,1,1,1
			h39.086c0.553,0,1-0.447,1-1V29.585l5.98-4.102c0.455-0.312,0.572-0.935,0.26-1.39C47.016,23.637,46.395,23.522,45.938,23.834z"/>
    <path d="M26.502,13.991c0,0.553,0.447,1,1,1h5.166c0.553,0,1-0.447,1-1c0-0.553-0.447-1-1-1h-5.166
			C26.949,12.991,26.502,13.438,26.502,13.991z"/>
    <path d="M36.002,11.491c0.264,0,0.525-0.104,0.723-0.308c0.381-0.399,0.368-1.032-0.031-1.414l-4.5-4.314
			c-0.396-0.381-1.029-0.368-1.414,0.029c-0.381,0.399-0.367,1.032,0.031,1.414l4.5,4.314
			C35.504,11.398,35.752,11.491,36.002,11.491z"/>
    <path d="M51.836,21.991c-0.553,0-1,0.447-1,1v4.834c0,0.553,0.447,1,1,1s1-0.447,1-1v-4.834
			C52.836,22.438,52.389,21.991,51.836,21.991z"/>
</svg>
